<?xml version="1.0" encoding="UTF-8"?>
<svg width="172px" height="57px" viewBox="0 0 172 57" version="1.1" xmlns="http://www.w3.org/2000/svg" xmlns:xlink="http://www.w3.org/1999/xlink">
    <path d="M0.00763676544,32.1069746 L0.00763676544,0.748223654 L11.9052681,0.748223654 C19.0512591,0.748223654 24.4217021,5.84225154 24.4217021,16.2531919 C24.4217021,25.343541 20.3259251,32.1069746 11.9052681,32.1069746 L0.00763676544,32.1069746 Z M6.07212697,6.54433808 L6.07212697,26.3108602 L11.4796307,26.3108602 C14.995912,26.3108602 18.3572119,23.850214 18.3572119,16.911816 C18.3572119,10.587465 16.4244364,6.54433808 10.39813,6.54433808 L6.07212697,6.54433808 Z" id="Fill-1" fill="#0B3D91"/>
    <path d="M22.1413414,32.1069746 L28.2833224,32.1069746 L30.4474469,25.125114 L40.7615725,25.125114 L42.8470833,32.1069746 L49.1440456,32.1069746 L38.82992,0.748223654 L32.6093254,0.748223654 L22.1413414,32.1069746 Z M35.6224786,8.47786212 L35.6999693,8.47786212 L39.1769436,19.9865092 L32.0298296,19.9865092 L35.6224786,8.47786212 Z" id="Fill-3" fill="#0B3D91"/>
    <path d="M66.9949848,11.2893287 C66.6086543,8.17005846 63.9829547,5.79968058 60.9698015,5.79968058 C55.5229909,5.79968058 53.4767869,11.0697873 53.4767869,16.5594354 C53.4767869,21.787194 55.5229909,27.0561863 60.9698015,27.0561863 C64.678125,27.0561863 66.7647588,24.1586863 67.227457,20.0297488 L73.099905,20.0297488 C72.4822254,27.8474267 67.729462,32.8534152 60.9698015,32.8534152 C52.432347,32.8534152 47.4111737,25.6074363 47.4111737,16.5594354 C47.4111737,7.24843058 52.432347,0.00133730769 60.9698015,0.00133730769 C67.0342917,0.00133730769 72.1340788,4.04223538 72.8674328,11.2893287 L66.9949848,11.2893287 Z" id="Fill-5" fill="#0B3D91"/>
    <polygon id="Fill-7" fill="#0B3D91" points="75.2183212 0.748000769 81.2828115 0.748000769 81.2828115 12.7826556 92.4470887 12.7826556 92.4470887 0.748000769 98.512702 0.748000769 98.512702 32.1067517 92.4470887 32.1067517 92.4470887 18.5798844 81.2828115 18.5798844 81.2828115 32.1067517 75.2183212 32.1067517"/>
    <path d="M105.961917,21.6989317 C105.961917,25.8702173 108.820089,27.4950462 112.063468,27.4950462 C114.188286,27.4950462 117.433911,26.7929596 117.433911,23.5867644 C117.433911,20.2044904 113.301074,19.6339058 109.24348,18.4046971 C105.148827,17.1732596 101.017112,15.3734663 101.017112,9.48819808 C101.017112,3.07580769 106.346002,0 111.328991,0 C117.085765,0 122.377594,2.85626635 122.377594,10.1033596 L116.507392,10.1033596 C116.313104,6.32657981 113.959183,5.360375 111.059458,5.360375 C109.127806,5.360375 106.887314,6.28200288 106.887314,8.91649904 C106.887314,11.3314538 108.201287,11.6412635 115.115928,13.6594837 C117.123949,14.2322971 123.306359,15.6821615 123.306359,22.7966385 C123.306359,28.5504048 119.326257,32.8531923 111.833242,32.8531923 C105.729445,32.8531923 100.009733,29.4285702 100.089469,21.6989317 L105.961917,21.6989317 Z" id="Fill-9" fill="#0B3D91"/>
    <polygon id="Fill-12" fill="#0B3D91" points="125.358628 0.748000769 145.986879 0.748000769 145.986879 6.54522962 131.421995 6.54522962 131.421995 13.2640863 144.789704 13.2640863 144.789704 18.6244613 131.421995 18.6244613 131.421995 26.3095229 146.295719 26.3095229 146.295719 32.1067517 125.358628 32.1067517"/>
    <path d="M148.14988,32.109092 L154.213248,32.109092 L154.213248,19.8537814 L160.279984,19.8537814 C163.332444,19.8537814 164.453252,21.3025314 164.876643,24.5967661 C165.185483,27.0997603 165.109115,30.1321055 165.842469,32.109092 L171.906959,32.109092 C170.824336,30.3505324 170.864765,26.6629064 170.746845,24.6848055 C170.55368,21.5231872 169.706897,18.2278382 166.730805,17.3496728 L166.730805,17.2616334 C169.783265,15.8574603 171.097238,13.0892334 171.097238,9.40049298 C171.097238,4.65639394 167.967287,0.748112212 163.021358,0.748112212 L148.14988,0.748112212 L148.14988,32.109092 Z M154.213248,6.10625837 L160.85948,6.10625837 C163.56267,6.10625837 165.030501,7.42350644 165.030501,10.4547372 C165.030501,13.6174699 163.56267,14.9336036 160.85948,14.9336036 L154.213248,14.9336036 L154.213248,6.10625837 Z" id="Fill-14" fill="#0B3D91"/>
    <polygon id="Fill-16" fill="#000000" points="0 53.2573873 2.91432446 53.2573873 2.91432446 40.1194537 0 40.1194537"/>
    <path d="M5.24836705,43.7431117 L7.75389995,43.7431117 L7.75389995,45.0681608 L7.81005264,45.0681608 C8.47826961,44.0016579 9.62827664,43.4867944 10.742346,43.4867944 C13.544365,43.4867944 14.2496428,45.0514444 14.2496428,47.4062204 L14.2496428,53.2569415 L11.6138357,53.2569415 L11.6138357,47.8854223 C11.6138357,46.3207723 11.1488914,45.5473627 9.92588589,45.5473627 C8.49623847,45.5473627 7.88417418,46.3374887 7.88417418,48.2698983 L7.88417418,53.2569415 L5.24836705,53.2569415 L5.24836705,43.7431117 Z" id="Fill-18" fill="#000000"/>
    <path d="M19.5948171,43.7431117 L21.5253465,43.7431117 L21.5253465,45.492756 L19.5948171,45.492756 L19.5948171,50.2011935 C19.5948171,51.084931 19.8171817,51.3044723 20.7077633,51.3044723 C20.9862807,51.3044723 21.2457061,51.287756 21.5253465,51.2331492 L21.5253465,53.2747723 C21.0794941,53.3483242 20.5033676,53.3683838 19.9833937,53.3683838 C18.3695654,53.3683838 16.9590099,53.0006242 16.9590099,51.1038762 L16.9590099,45.492756 L15.3631506,45.492756 L15.3631506,43.7431117 L16.9590099,43.7431117 L16.9590099,40.8935319 L19.5948171,40.8935319 L19.5948171,43.7431117 Z" id="Fill-19" fill="#000000"/>
    <path d="M31.9318993,49.1345791 C32.1183263,46.2092186 30.5393127,43.486683 27.2745955,43.486683 C24.360271,43.486683 22.374712,45.6564647 22.374712,48.5093878 C22.374712,51.4525791 24.2490887,53.5142618 27.2745955,53.5142618 C29.4454584,53.5142618 31.0233489,52.555858 31.7656874,50.3125243 L29.4454584,50.3125243 C29.2792464,50.9020541 28.4246025,51.5461907 27.3666859,51.5461907 C25.8999777,51.5461907 25.0835176,50.7906118 25.008273,49.1345791 L31.9318993,49.1345791 Z M25.008273,47.4807753 C25.0475799,46.7430272 25.52937,45.4558686 27.1993509,45.4558686 C28.4796321,45.4558686 29.0557587,46.1546118 29.2972153,47.4807753 L25.008273,47.4807753 Z" id="Fill-20" fill="#000000"/>
    <polygon id="Fill-21" fill="#000000" points="33.6174907 53.2551585 36.2510517 53.2551585 36.2510517 40.1194537 33.6174907 40.1194537"/>
    <polygon id="Fill-22" fill="#000000" points="38.4050688 53.2551585 41.0397529 53.2551585 41.0397529 40.1194537 38.4050688 40.1194537"/>
    <path d="M43.19377,42.2736335 L45.828454,42.2736335 L45.828454,40.1183392 L43.19377,40.1183392 L43.19377,42.2736335 Z M43.19377,53.2573873 L45.828454,53.2573873 L45.828454,43.7435575 L43.19377,43.7435575 L43.19377,53.2573873 Z" id="Fill-23" fill="#000000"/>
    <path d="M57.1298562,43.7431117 L54.6265694,43.7431117 L54.6265694,45.0146685 L54.5883855,45.0146685 C53.9572293,43.9080463 52.9914031,43.4867944 51.7302138,43.4867944 C49.039377,43.4867944 47.6086065,45.7301281 47.6086065,48.1963463 C47.6086065,50.8107829 48.8349812,52.9805646 51.7111218,52.9805646 C52.8622519,52.9805646 54.013382,52.5013627 54.5883855,51.5095262 L54.6265694,51.5095262 L54.6265694,52.7610233 C54.6434152,54.1217338 53.9763212,55.1135704 52.5096131,55.1135704 C51.5808476,55.1135704 50.7834795,54.7848156 50.5420229,53.8074665 L47.9253077,53.8074665 C48.0555819,55.9794771 50.2646286,56.8632146 52.1558511,56.8632146 C56.5728215,56.8632146 57.1298562,54.214231 57.1298562,52.649581 L57.1298562,43.7431117 Z M52.3804619,51.0102646 C50.7655106,51.0102646 50.2455367,49.520281 50.2455367,48.1595704 C50.2455367,46.7420242 50.8946618,45.45598 52.3804619,45.45598 C54.0875036,45.45598 54.6265694,46.8356358 54.6265694,48.3813406 C54.6265694,49.74428 53.8819847,51.0102646 52.3804619,51.0102646 Z" id="Fill-24" fill="#000000"/>
    <path d="M68.3396171,49.1345791 C68.526044,46.2092186 66.9492765,43.486683 63.6811902,43.486683 C60.7679887,43.486683 58.7824297,45.6564647 58.7824297,48.5093878 C58.7824297,51.4525791 60.6556834,53.5142618 63.6811902,53.5142618 C65.852053,53.5142618 67.4299435,52.555858 68.1734051,50.3125243 L65.852053,50.3125243 C65.6869641,50.9020541 64.8323202,51.5461907 63.7744036,51.5461907 C62.3076954,51.5461907 61.4901123,50.7906118 61.4171138,49.1345791 L68.3396171,49.1345791 Z M61.4171138,47.4807753 C61.4541746,46.7430272 61.9370877,45.4558686 63.6059456,45.4558686 C64.8873499,45.4558686 65.4623534,46.1546118 65.7038099,47.4807753 L61.4171138,47.4807753 Z" id="Fill-25" fill="#000000"/>
    <path d="M69.8990895,43.7431117 L72.4034993,43.7431117 L72.4034993,45.0681608 L72.459652,45.0681608 C73.127869,44.0016579 74.277876,43.4867944 75.3919454,43.4867944 C78.1950875,43.4867944 78.8992422,45.0514444 78.8992422,47.4062204 L78.8992422,53.2569415 L76.2645581,53.2569415 L76.2645581,47.8854223 C76.2645581,46.3207723 75.7996139,45.5473627 74.5754853,45.5473627 C73.1469609,45.5473627 72.5337736,46.3374887 72.5337736,48.2698983 L72.5337736,53.2569415 L69.8990895,53.2569415 L69.8990895,43.7431117 Z" id="Fill-26" fill="#000000"/>
    <path d="M84.2444165,43.7431117 L86.1749459,43.7431117 L86.1749459,45.492756 L84.2444165,45.492756 L84.2444165,50.2011935 C84.2444165,51.084931 84.4656581,51.3044723 85.3562397,51.3044723 C85.634757,51.3044723 85.8953055,51.287756 86.1749459,51.2331492 L86.1749459,53.2747723 C85.7279705,53.3483242 85.152967,53.3683838 84.6329931,53.3683838 C83.0180418,53.3683838 81.6086093,53.0006242 81.6086093,51.1038762 L81.6086093,45.492756 L80.0116269,45.492756 L80.0116269,43.7431117 L81.6086093,43.7431117 L81.6086093,40.8935319 L84.2444165,40.8935319 L84.2444165,43.7431117 Z" id="Fill-27" fill="#000000"/>
    <polygon id="Fill-28" fill="#000000" points="92.874523 40.1212367 95.7866013 40.1212367 95.7866013 50.8274992 102.24416 50.8274992 102.24416 53.2569415 92.874523 53.2569415"/>
    <path d="M103.303425,48.5098336 C103.303425,51.5265768 105.251923,53.5135932 108.257215,53.5135932 C111.281598,53.5135932 113.230097,51.5265768 113.230097,48.5098336 C113.230097,45.4730307 111.281598,43.4860143 108.257215,43.4860143 C105.251923,43.4860143 103.303425,45.4730307 103.303425,48.5098336 M105.936986,48.5098336 C105.936986,46.9841884 106.476051,45.4563143 108.257215,45.4563143 C110.05747,45.4563143 110.596536,46.9841884 110.596536,48.5098336 C110.596536,50.0187624 110.05747,51.5444076 108.257215,51.5444076 C106.476051,51.5444076 105.936986,50.0187624 105.936986,48.5098336" id="Fill-29" fill="#000000"/>
    <path d="M124.162126,43.7431117 L121.657717,43.7431117 L121.657717,45.0146685 L121.61841,45.0146685 C120.988376,43.9080463 120.02255,43.4867944 118.759115,43.4867944 C116.070524,43.4867944 114.639754,45.7301281 114.639754,48.1963463 C114.639754,50.8107829 115.867251,52.9805646 118.743392,52.9805646 C119.894522,52.9805646 121.045652,52.5013627 121.61841,51.5095262 L121.657717,51.5095262 L121.657717,52.7610233 C121.674562,54.1217338 121.008591,55.1135704 119.54076,55.1135704 C118.613118,55.1135704 117.816873,54.7848156 117.57317,53.8074665 L114.958701,53.8074665 C115.087852,55.9794771 117.295776,56.8632146 119.188121,56.8632146 C123.606215,56.8632146 124.162126,54.214231 124.162126,52.649581 L124.162126,43.7431117 Z M119.411609,51.0102646 C117.796658,51.0102646 117.277807,49.520281 117.277807,48.1595704 C117.277807,46.7420242 117.926932,45.45598 119.411609,45.45598 C121.118651,45.45598 121.657717,46.8356358 121.657717,48.3813406 C121.657717,49.74428 120.914255,51.0102646 119.411609,51.0102646 Z" id="Fill-30" fill="#000000"/>
    <path d="M126.351407,42.2736335 L128.987214,42.2736335 L128.987214,40.1183392 L126.351407,40.1183392 L126.351407,42.2736335 Z M126.35253,53.2573873 L128.987214,53.2573873 L128.987214,43.7435575 L126.35253,43.7435575 L126.35253,53.2573873 Z" id="Fill-31" fill="#000000"/>
    <path d="M133.107137,50.1662006 C133.125106,51.3040265 134.090932,51.7665121 135.129757,51.7665121 C135.891187,51.7665121 136.855891,51.4723044 136.855891,50.551791 C136.855891,49.761665 135.760913,49.4852881 133.868568,49.0796381 C132.345707,48.7497688 130.826215,48.2159602 130.826215,46.5398679 C130.826215,44.1104256 132.942048,43.4863487 134.999483,43.4863487 C137.097347,43.4863487 139.027876,44.1850919 139.231149,46.5220371 L136.724493,46.5220371 C136.652618,45.510141 135.872095,45.233764 134.926484,45.233764 C134.333512,45.233764 133.458653,45.3452063 133.458653,46.1175015 C133.458653,47.0558458 134.94333,47.1840044 136.448222,47.5350477 C137.987929,47.8849765 139.491698,48.4355015 139.491698,50.2007477 C139.491698,52.7037419 137.301743,53.5139275 135.110665,53.5139275 C132.883649,53.5139275 130.71391,52.6870256 130.601604,50.1662006 L133.107137,50.1662006 Z" id="Fill-32" fill="#000000"/>
    <path d="M144.268494,43.7431117 L146.199024,43.7431117 L146.199024,45.492756 L144.268494,45.492756 L144.268494,50.2011935 C144.268494,51.084931 144.490859,51.3044723 145.379195,51.3044723 C145.659958,51.3044723 145.91826,51.287756 146.199024,51.2331492 L146.199024,53.2747723 C145.752048,53.3483242 145.177045,53.3683838 144.657071,53.3683838 C143.040997,53.3683838 141.632687,53.0006242 141.632687,51.1038762 L141.632687,45.492756 L140.035705,45.492756 L140.035705,43.7431117 L141.632687,43.7431117 L141.632687,40.8935319 L144.268494,40.8935319 L144.268494,43.7431117 Z" id="Fill-33" fill="#000000"/>
    <path d="M148.109451,42.2736335 L150.744135,42.2736335 L150.744135,40.1183392 L148.109451,40.1183392 L148.109451,42.2736335 Z M148.107204,53.2573873 L150.741888,53.2573873 L150.741888,43.7435575 L148.107204,43.7435575 L148.107204,53.2573873 Z" id="Fill-34" fill="#000000"/>
    <path d="M159.093028,47.0928446 C158.926816,46.0263417 158.238385,45.4557571 157.14453,45.4557571 C155.455457,45.4557571 154.899546,47.1474513 154.899546,48.5471667 C154.899546,49.9089917 155.438612,51.5460792 157.089501,51.5460792 C158.314752,51.5460792 159.018907,50.773784 159.185119,49.6136696 L161.728836,49.6136696 C161.395289,52.1333802 159.630971,53.5141504 157.106346,53.5141504 C154.21336,53.5141504 152.262616,51.4892437 152.262616,48.6385494 C152.262616,45.6764129 154.044902,43.4865715 157.163622,43.4865715 C159.427698,43.4865715 161.505348,44.6634023 161.673806,47.0928446 L159.093028,47.0928446 Z" id="Fill-35" fill="#000000"/>
    <path d="M165.514425,50.1662006 C165.533517,51.3040265 166.499343,51.7665121 167.537045,51.7665121 C168.298475,51.7665121 169.263179,51.4723044 169.263179,50.551791 C169.263179,49.761665 168.167078,49.4852881 166.275856,49.0796381 C164.754118,48.7497688 163.233503,48.2159602 163.233503,46.5398679 C163.233503,44.1104256 165.349336,43.4863487 167.407894,43.4863487 C169.504635,43.4863487 171.435164,44.1850919 171.638437,46.5220371 L169.13515,46.5220371 C169.05766,45.510141 168.280506,45.233764 167.334895,45.233764 C166.738554,45.233764 165.867064,45.3452063 165.867064,46.1175015 C165.867064,47.0558458 167.352864,47.1840044 168.85551,47.5350477 C170.39634,47.8849765 171.898986,48.4355015 171.898986,50.2007477 C171.898986,52.7037419 169.709031,53.5139275 167.517953,53.5139275 C165.290937,53.5139275 163.120075,52.6870256 163.010015,50.1662006 L165.514425,50.1662006 Z" id="Fill-36" fill="#000000"/>
</svg>